<?xml version="1.0" encoding="UTF-8" standalone="no"?>
<!-- Created with Inkscape (http://www.inkscape.org/) -->

<svg
   width="433.47052"
   height="90.656616"
   viewBox="0 0 108.36763 22.664154"
   version="1.1"
   id="svg5"
   inkscape:version="1.2.1 (9c6d41e4, 2022-07-14)"
   sodipodi:docname="ornament-experiment-06.svg"
   xmlns:inkscape="http://www.inkscape.org/namespaces/inkscape"
   xmlns:sodipodi="http://sodipodi.sourceforge.net/DTD/sodipodi-0.dtd"
   xmlns="http://www.w3.org/2000/svg"
   xmlns:svg="http://www.w3.org/2000/svg">
  <sodipodi:namedview
     id="namedview7"
     pagecolor="#ffffff"
     bordercolor="#000000"
     borderopacity="0.25"
     inkscape:showpageshadow="2"
     inkscape:pageopacity="0.0"
     inkscape:pagecheckerboard="0"
     inkscape:deskcolor="#d1d1d1"
     inkscape:document-units="mm"
     showgrid="true"
     inkscape:zoom="0.33270146"
     inkscape:cx="309.58686"
     inkscape:cy="697.32187"
     inkscape:window-width="1440"
     inkscape:window-height="800"
     inkscape:window-x="0"
     inkscape:window-y="23"
     inkscape:window-maximized="0"
     inkscape:current-layer="layer1">
    <inkscape:grid
       type="xygrid"
       id="grid132"
       spacingx="6.25"
       spacingy="6.25"
       empspacing="4"
       originx="0"
       originy="0" />
  </sodipodi:namedview>
  <defs
     id="defs2">
    <inkscape:path-effect
       effect="taper_stroke"
       id="path-effect619-9"
       is_visible="true"
       lpeversion="1"
       stroke_width="1"
       attach_start="4.8370531"
       end_offset="4.99999"
       start_smoothing="0.5"
       end_smoothing="0.5"
       jointype="extrapolated"
       start_shape="center"
       end_shape="center"
       miter_limit="100" />
  </defs>
  <g
     inkscape:label="Layer 1"
     inkscape:groupmode="layer"
     id="layer1"
     transform="translate(-58.862885,-158.18016)">
    <path
       id="path456-9"
       style="fill:#000000;fill-rule:nonzero;stroke:none;stroke-width:0.25"
       d="m 159.41885,179.61325 c 3.24021,-1.00848 6.02894,-3.40893 7.20641,-6.555 0.99343,-2.6517 0.79031,-5.71834 -0.80517,-7.94231 -1.38716,-1.90376 -3.46094,-3.1503 -5.60777,-3.57317 -2.3458,-0.46253 -4.7163,0.15896 -6.37837,1.50968 -1.3502,1.10351 -2.1486,2.66187 -2.37364,4.18312 -0.26309,1.77184 0.35571,3.44246 1.40009,4.48877 0.80265,0.79939 1.84868,1.17383 2.77711,1.22229 1.21179,0.065 2.16992,-0.5708 2.5947,-1.30288 0.31167,-0.54568 0.21517,-1.18399 0.0853,-1.57873 0,0 0,-1e-5 0,-1e-5 -0.0894,-0.27868 -0.23215,-0.4803 -0.41818,-0.58557 -0.45339,-0.25127 -0.75866,0.051 -0.75866,0.051 0,0 0.32153,-0.28631 0.74303,-0.0244 0.17497,0.10642 0.2988,0.3033 0.37806,0.57598 0,0 0,0 0,0 0.11055,0.3912 0.17906,1.01368 -0.12932,1.50182 -0.42492,0.6846 -1.35479,1.2396 -2.47982,1.14366 -0.87783,-0.0759 -1.85012,-0.46424 -2.56505,-1.22425 -0.94585,-0.99876 -1.46116,-2.57578 -1.17601,-4.19478 0.24823,-1.40616 1.03244,-2.82915 2.2858,-3.79999 1.54444,-1.20405 3.74535,-1.71124 5.86663,-1.24907 1.95905,0.42705 3.84217,1.61306 5.06389,3.35223 1.38951,1.94417 1.50202,4.72307 0.60572,7.11229 -1.06008,2.82268 -3.65045,5.0023 -6.61337,5.93491 -1.36591,0.42742 -2.94336,0.66791 -4.74144,0.65313 a 19.135257,19.135257 0 0 1 -0.0106,-9e-5 121.63645,121.63645 0 0 1 -0.0107,3.7e-4 c -52.84172,1.82276 -69.059399,-32.11281 -90.486371,-17.44231 a 27.217918,27.217918 0 0 0 -0.0096,0.007 l -0.0093,0.007 c -2.320896,1.74945 -4.028101,4.27299 -4.704005,7.06609 -0.687942,2.85287 -0.114198,5.89525 1.529975,8.16716 1.386945,1.90381 3.461185,3.15203 5.610911,3.57542 2.346068,0.46255 4.718286,-0.15848 6.382484,-1.51116 1.350623,-1.10412 2.149632,-2.66334 2.374642,-4.18626 0.262888,-1.77257 -0.356255,-3.44427 -1.40198,-4.4915 -0.803282,-0.79963 -1.849914,-1.17411 -2.779099,-1.22234 -1.212351,-0.0647 -2.170914,0.57162 -2.595839,1.30442 -0.311683,0.54618 -0.214979,1.18461 -0.08485,1.5795 0,0 1e-6,0 1e-6,0 0.0895,0.27872 0.232426,0.48041 0.418591,0.58568 0.453644,0.25113 0.75882,-0.0513 0.75882,-0.0513 0,0 -0.321767,0.28611 -0.742873,0.0241 -0.174872,-0.10645 -0.298493,-0.30329 -0.377651,-0.57588 0,0 -10e-7,-1e-5 -10e-7,-1e-5 -0.110378,-0.39126 -0.17855,-1.01353 0.129754,-1.50105 0.425056,-0.68434 1.354765,-1.23832 2.478671,-1.14212 0.877583,0.0762 1.849081,0.46474 2.563065,1.2242 0.945345,0.99869 1.459291,2.57498 1.174133,4.19205 -0.248468,1.40574 -1.032795,2.82736 -2.284807,3.79685 -1.544308,1.20368 -3.744102,1.7092 -5.862521,1.24758 -1.959108,-0.42713 -3.840515,-1.61321 -5.060752,-3.34998 -1.461983,-2.06541 -1.939027,-4.8606 -1.295677,-7.43605 0.635656,-2.55477 2.23335,-4.88182 4.371368,-6.49718 4.3e-5,-3e-5 8.6e-5,-6e-5 1.3e-4,-9e-5 l -0.0187,0.0134 c 20.801214,-14.24205 36.774677,19.45107 89.955907,17.61659 l -0.0213,2.8e-4 c 1.89278,0.0156 3.57417,-0.23744 5.04831,-0.69873 z"
       sodipodi:nodetypes="cssssccssssc"
       inkscape:path-effect="#path-effect619-9"
       inkscape:original-d="m 157.14064,169.53049 c 1.25346,-0.62673 1.46323,1.38043 1.04167,2.08333 -1.14242,1.90482 -3.88749,1.35723 -5.20834,0 -2.36268,-2.42775 -1.41935,-6.37253 1.04167,-8.33333 3.61165,-2.87756 8.89558,-1.49521 11.45833,2.08333 3.41575,4.76964 0.22605,14.54132 -11.09932,14.44818 -53.01121,1.82861 -69.106561,-31.98606 -90.221139,-17.52945 -4.518398,3.4096 -6.540744,9.8137 -3.124996,14.58334 2.562753,3.57854 7.846686,4.96089 11.458334,2.08333 2.461018,-1.9608 3.404358,-5.90558 1.041668,-8.33333 -1.320853,-1.35723 -4.06592,-1.90482 -5.208337,0 -0.421566,0.7029 -0.211793,2.71006 1.041667,2.08333" />
  </g>
</svg>
