<?xml version="1.0" encoding="UTF-8" standalone="no"?>
<!-- Created with Inkscape (http://www.inkscape.org/) -->

<svg
   width="883.83582"
   height="91.444824"
   viewBox="0 0 220.95895 22.861206"
   version="1.1"
   id="svg5"
   inkscape:version="1.2.1 (9c6d41e4, 2022-07-14)"
   sodipodi:docname="ornament-experiment-06.svg"
   xmlns:inkscape="http://www.inkscape.org/namespaces/inkscape"
   xmlns:sodipodi="http://sodipodi.sourceforge.net/DTD/sodipodi-0.dtd"
   xmlns="http://www.w3.org/2000/svg"
   xmlns:svg="http://www.w3.org/2000/svg">
  <sodipodi:namedview
     id="namedview7"
     pagecolor="#ffffff"
     bordercolor="#000000"
     borderopacity="0.25"
     inkscape:showpageshadow="2"
     inkscape:pageopacity="0.0"
     inkscape:pagecheckerboard="0"
     inkscape:deskcolor="#d1d1d1"
     inkscape:document-units="mm"
     showgrid="true"
     inkscape:zoom="0.33270146"
     inkscape:cx="309.58686"
     inkscape:cy="697.32187"
     inkscape:window-width="1440"
     inkscape:window-height="800"
     inkscape:window-x="0"
     inkscape:window-y="23"
     inkscape:window-maximized="0"
     inkscape:current-layer="layer1">
    <inkscape:grid
       type="xygrid"
       id="grid132"
       spacingx="6.25"
       spacingy="6.25"
       empspacing="4"
       originx="0"
       originy="0" />
  </sodipodi:namedview>
  <defs
     id="defs2">
    <inkscape:path-effect
       effect="taper_stroke"
       id="path-effect619-9-7-1"
       is_visible="true"
       lpeversion="1"
       stroke_width="1"
       attach_start="4.8370531"
       end_offset="4.99999"
       start_smoothing="0.5"
       end_smoothing="0.5"
       jointype="extrapolated"
       start_shape="center"
       end_shape="center"
       miter_limit="100" />
    <inkscape:path-effect
       effect="taper_stroke"
       id="path-effect619-9-8-1-0"
       is_visible="true"
       lpeversion="1"
       stroke_width="1"
       attach_start="4.8370531"
       end_offset="4.99999"
       start_smoothing="0.5"
       end_smoothing="0.5"
       jointype="extrapolated"
       start_shape="center"
       end_shape="center"
       miter_limit="100" />
  </defs>
  <g
     inkscape:label="Layer 1"
     inkscape:groupmode="layer"
     id="layer1"
     transform="translate(-14.242233,-262.67078)">
    <path
       id="path456-9-2-2"
       style="fill:#000000;fill-rule:nonzero;stroke:none;stroke-width:0.25"
       d="m 114.49966,264.85578 c 2.96292,0.93261 5.55329,3.11223 6.61337,5.93491 0.8963,2.38922 0.78379,5.16812 -0.60572,7.11229 -1.22172,1.73917 -3.10484,2.92518 -5.06389,3.35223 -2.12128,0.46217 -4.32219,-0.045 -5.86663,-1.24907 -1.25336,-0.97084 -2.03757,-2.39383 -2.2858,-3.79999 -0.28515,-1.619 0.23016,-3.19602 1.17601,-4.19478 0.71493,-0.76001 1.68722,-1.14834 2.56505,-1.22425 1.12503,-0.0959 2.0549,0.45906 2.47982,1.14366 0.30838,0.48814 0.23987,1.11062 0.12932,1.50182 0,0 0,0 0,0 -0.0793,0.27268 -0.20309,0.46956 -0.37806,0.57598 -0.4215,0.26191 -0.74303,-0.0244 -0.74303,-0.0244 0,0 0.30527,0.30232 0.75866,0.0511 0.18603,-0.10527 0.32877,-0.30689 0.41818,-0.58557 0,0 0,-10e-6 0,-10e-6 0.1299,-0.39474 0.2264,-1.03305 -0.0853,-1.57873 -0.42478,-0.73208 -1.38291,-1.3679 -2.5947,-1.30288 -0.92843,0.0485 -1.97446,0.4229 -2.77711,1.22229 -1.04438,1.04631 -1.66318,2.71693 -1.40009,4.48877 0.22504,1.52125 1.02344,3.07961 2.37364,4.18312 1.66207,1.35072 4.03257,1.97221 6.37837,1.50968 2.14683,-0.42287 4.22061,-1.66941 5.60777,-3.57317 1.59548,-2.22397 1.7986,-5.29061 0.80517,-7.94231 -1.17747,-3.14607 -3.9662,-5.54652 -7.20641,-6.555 -1.47414,-0.46129 -3.15553,-0.7143 -5.04831,-0.69873 l 0.0213,2.8e-4 c -53.181229,-1.83448 -69.154698,31.85864 -89.955912,17.61659 l 0.0187,0.0134 c -4.4e-5,-3e-5 -8.7e-5,-6e-5 -1.3e-4,-9e-5 -2.138018,-1.61536 -3.735712,-3.94241 -4.371368,-6.49718 -0.64335,-2.57545 -0.166306,-5.37064 1.295677,-7.43605 1.220237,-1.73677 3.101644,-2.92285 5.060752,-3.34998 2.118419,-0.46162 4.318213,0.0439 5.862521,1.24758 1.252012,0.96949 2.036339,2.39111 2.284807,3.79685 0.285158,1.61707 -0.228788,3.19336 -1.174133,4.19205 -0.713984,0.75946 -1.685482,1.14802 -2.563065,1.2242 -1.123906,0.0962 -2.053615,-0.45778 -2.478671,-1.14212 -0.308304,-0.48752 -0.240132,-1.10979 -0.129754,-1.50105 0,0 1e-6,-10e-6 1e-6,-10e-6 0.07916,-0.27259 0.202779,-0.46943 0.377651,-0.57588 0.421106,-0.26198 0.742873,0.0241 0.742873,0.0241 0,0 -0.305176,-0.30246 -0.75882,-0.0513 -0.186165,0.10527 -0.329089,0.30696 -0.418591,0.58568 0,0 -1e-6,0 -1e-6,0 -0.13013,0.39489 -0.226834,1.03332 0.08485,1.5795 0.424925,0.7328 1.383488,1.36915 2.595839,1.30442 0.929185,-0.0482 1.975817,-0.42271 2.779099,-1.22234 1.045725,-1.04723 1.664868,-2.71893 1.40198,-4.4915 -0.22501,-1.52292 -1.024019,-3.08214 -2.374642,-4.18626 -1.664198,-1.35268 -4.036416,-1.97371 -6.382484,-1.51116 -2.149726,0.42339 -4.223966,1.67161 -5.610911,3.57542 -1.644173,2.27191 -2.217917,5.31429 -1.529975,8.16716 0.675904,2.7931 2.383109,5.31664 4.704005,7.06609 4.7e-5,4e-5 9.4e-5,7e-5 0.0093,0.007 a 27.217916,27.217916 0 0 0 0.0096,0.007 c 21.426972,14.6705 37.644656,-19.26507 90.486376,-17.44231 a 121.63645,121.63645 0 0 1 0.0107,3.7e-4 19.135257,19.135257 0 0 1 0.0106,-9e-5 c 1.79808,-0.0148 3.37553,0.22571 4.74144,0.65313 z"
       sodipodi:nodetypes="cssssccssssc"
       inkscape:path-effect="#path-effect619-9-7-1"
       inkscape:original-d="m 112.5201,273.98418 c 1.25346,0.62673 1.46323,-1.38043 1.04167,-2.08333 -1.14242,-1.90482 -3.88749,-1.35723 -5.20834,0 -2.36268,2.42775 -1.41935,6.37253 1.04167,8.33333 3.61165,2.87756 8.89558,1.49521 11.45833,-2.08333 3.41575,-4.76964 0.22605,-14.54132 -11.09932,-14.44818 -53.011211,-1.82861 -69.106566,31.98606 -90.221144,17.52945 -4.518398,-3.4096 -6.540744,-9.8137 -3.124996,-14.58334 2.562753,-3.57854 7.846686,-4.96089 11.458334,-2.08333 2.461018,1.9608 3.404358,5.90558 1.041668,8.33333 -1.320853,1.35723 -4.06592,1.90482 -5.208337,0 -0.421566,-0.7029 -0.211793,-2.71006 1.041667,-2.08333" />
    <path
       id="path456-9-3-6-4"
       style="fill:#000000;fill-rule:nonzero;stroke:none;stroke-width:0.25"
       d="m 134.64511,264.0989 c -3.24021,1.00848 -6.02894,3.40893 -7.20641,6.555 -0.99343,2.6517 -0.79031,5.71834 0.80517,7.94231 1.38716,1.90376 3.46094,3.1503 5.60777,3.57317 2.3458,0.46253 4.7163,-0.15896 6.37837,-1.50968 1.3502,-1.10351 2.1486,-2.66187 2.37364,-4.18312 0.26309,-1.77184 -0.35571,-3.44246 -1.40009,-4.48877 -0.80265,-0.79939 -1.84868,-1.17383 -2.77711,-1.22229 -1.21179,-0.065 -2.16992,0.5708 -2.5947,1.30288 -0.31167,0.54568 -0.21517,1.18399 -0.0853,1.57873 0,0 0,10e-6 0,10e-6 0.0894,0.27868 0.23215,0.4803 0.41818,0.58557 0.45339,0.25127 0.75866,-0.051 0.75866,-0.051 0,0 -0.32153,0.28631 -0.74303,0.0244 -0.17497,-0.10642 -0.2988,-0.3033 -0.37806,-0.57598 0,0 0,0 0,0 -0.11055,-0.3912 -0.17906,-1.01368 0.12932,-1.50182 0.42492,-0.6846 1.35479,-1.2396 2.47982,-1.14366 0.87783,0.0759 1.85012,0.46424 2.56505,1.22425 0.94585,0.99876 1.46116,2.57578 1.17601,4.19478 -0.24823,1.40616 -1.03244,2.82915 -2.2858,3.79999 -1.54444,1.20405 -3.74535,1.71124 -5.86663,1.24907 -1.95905,-0.42705 -3.84217,-1.61306 -5.06389,-3.35223 -1.38951,-1.94417 -1.50202,-4.72307 -0.60572,-7.11229 1.06008,-2.82268 3.65045,-5.0023 6.61337,-5.93491 1.36591,-0.42742 2.94336,-0.66791 4.74144,-0.65313 a 19.135257,19.135257 0 0 1 0.0106,9e-5 121.63649,121.63649 0 0 1 0.0107,-3.7e-4 c 52.84173,-1.82276 69.05942,32.11281 90.48639,17.44231 a 27.217917,27.217917 0 0 0 0.01,-0.007 l 0.009,-0.007 c 2.32089,-1.74945 4.0281,-4.27299 4.704,-7.06609 0.68794,-2.85287 0.1142,-5.89525 -1.52997,-8.16716 -1.38695,-1.90381 -3.46119,-3.15203 -5.61092,-3.57542 -2.34606,-0.46255 -4.71828,0.15848 -6.38248,1.51116 -1.35062,1.10412 -2.14963,2.66334 -2.37464,4.18626 -0.26289,1.77257 0.35625,3.44427 1.40198,4.4915 0.80328,0.79962 1.84991,1.17411 2.7791,1.22234 1.21235,0.0647 2.17091,-0.57162 2.59584,-1.30442 0.31168,-0.54618 0.21498,-1.18461 0.0848,-1.5795 0,0 0,0 0,0 -0.0895,-0.27872 -0.23242,-0.48041 -0.41859,-0.58568 -0.45364,-0.25113 -0.75882,0.0513 -0.75882,0.0513 0,0 0.32177,-0.28611 0.74287,-0.0241 0.17488,0.10645 0.2985,0.30329 0.37766,0.57588 0,0 0,10e-6 0,10e-6 0.11038,0.39126 0.17855,1.01354 -0.12976,1.50105 -0.42505,0.68434 -1.35476,1.23832 -2.47867,1.14212 -0.87758,-0.0762 -1.84908,-0.46474 -2.56307,-1.2242 -0.94534,-0.99869 -1.45929,-2.57498 -1.17413,-4.19205 0.24847,-1.40574 1.0328,-2.82736 2.28481,-3.79685 1.54431,-1.20368 3.7441,-1.7092 5.86252,-1.24758 1.95911,0.42713 3.84052,1.61321 5.06076,3.34998 1.46198,2.06541 1.93902,4.8606 1.29567,7.43605 -0.63565,2.55477 -2.23335,4.88182 -4.37136,6.49718 -5e-5,3e-5 -9e-5,6e-5 -1.3e-4,9e-5 l 0.0187,-0.0134 c -20.80122,14.24205 -36.77469,-19.45107 -89.95593,-17.61659 l 0.0214,-2.8e-4 c -1.89278,-0.0156 -3.57417,0.23744 -5.04831,0.69873 z"
       sodipodi:nodetypes="cssssccssssc"
       inkscape:path-effect="#path-effect619-9-8-1-0"
       inkscape:original-d="m 136.92332,274.18166 c -1.25346,0.62673 -1.46323,-1.38043 -1.04167,-2.08333 1.14242,-1.90482 3.88749,-1.35723 5.20834,0 2.36268,2.42775 1.41935,6.37253 -1.04167,8.33333 -3.61165,2.87756 -8.89558,1.49521 -11.45833,-2.08333 -3.41575,-4.76964 -0.22605,-14.54132 11.09932,-14.44818 53.01122,-1.82861 69.10658,31.98606 90.22116,17.52945 4.5184,-3.4096 6.54074,-9.8137 3.125,-14.58334 -2.56276,-3.57854 -7.84669,-4.96089 -11.45834,-2.08333 -2.46102,1.9608 -3.40436,5.90558 -1.04167,8.33333 1.32086,1.35723 4.06592,1.90482 5.20834,0 0.42157,-0.7029 0.21179,-2.71006 -1.04167,-2.08333" />
  </g>
</svg>
