<?xml version="1.0" encoding="UTF-8" standalone="no"?>
<!-- Created with Inkscape (http://www.inkscape.org/) -->

<svg
   width="183.67584"
   height="118.52435"
   viewBox="0 0 45.918961 29.631088"
   version="1.1"
   id="svg5"
   inkscape:version="1.2.1 (9c6d41e4, 2022-07-14)"
   sodipodi:docname="ornament-experiment-06.svg"
   xmlns:inkscape="http://www.inkscape.org/namespaces/inkscape"
   xmlns:sodipodi="http://sodipodi.sourceforge.net/DTD/sodipodi-0.dtd"
   xmlns="http://www.w3.org/2000/svg"
   xmlns:svg="http://www.w3.org/2000/svg">
  <sodipodi:namedview
     id="namedview7"
     pagecolor="#ffffff"
     bordercolor="#000000"
     borderopacity="0.25"
     inkscape:showpageshadow="2"
     inkscape:pageopacity="0.0"
     inkscape:pagecheckerboard="0"
     inkscape:deskcolor="#d1d1d1"
     inkscape:document-units="mm"
     showgrid="true"
     inkscape:zoom="0.33270146"
     inkscape:cx="309.58686"
     inkscape:cy="697.32187"
     inkscape:window-width="1440"
     inkscape:window-height="800"
     inkscape:window-x="0"
     inkscape:window-y="23"
     inkscape:window-maximized="0"
     inkscape:current-layer="layer1">
    <inkscape:grid
       type="xygrid"
       id="grid132"
       spacingx="6.25"
       spacingy="6.25"
       empspacing="4"
       originx="0"
       originy="0" />
  </sodipodi:namedview>
  <defs
     id="defs2">
    <inkscape:path-effect
       effect="powerstroke"
       id="path-effect1208"
       is_visible="true"
       lpeversion="1"
       offset_points="1.1405737,-0.21099409 | 2.9306555,-0.14791511 | 2.1136883,-0.3392112 | 3.94154,-0.3113233"
       not_jump="false"
       sort_points="true"
       interpolator_type="CentripetalCatmullRom"
       interpolator_beta="0.2"
       start_linecap_type="zerowidth"
       linejoin_type="round"
       miter_limit="4"
       scale_width="1"
       end_linecap_type="zerowidth" />
    <inkscape:path-effect
       effect="mirror_symmetry"
       start_point="127.31061,227.15705"
       end_point="127.31061,-122.84295"
       center_point="127.31061,52.15705"
       id="path-effect389"
       is_visible="true"
       lpeversion="1.2"
       lpesatellites="#path1664"
       mode="vertical"
       discard_orig_path="false"
       fuse_paths="false"
       oposite_fuse="false"
       split_items="true"
       split_open="false"
       link_styles="false" />
  </defs>
  <g
     inkscape:label="Layer 1"
     inkscape:groupmode="layer"
     id="layer1"
     transform="translate(-102.04051,-85.316071)">
    <path
       id="path385"
       style="fill:#000000;fill-rule:nonzero;stroke:none;stroke-width:0.25;stroke-linejoin:bevel"
       transform="matrix(1,0,0,-1,-2.3106076,227.15705)"
       d="m 127.21195,130.19713 c -0.006,0.009 -0.2385,-0.0895 -0.86536,-0.61337 -0.43149,-0.36061 -1.07588,-0.96872 -1.60751,-1.77437 -0.24767,-0.37534 -0.4735,-0.79755 -0.64085,-1.26106 -0.16537,-0.45802 -0.27254,-0.95341 -0.2891,-1.48089 -0.0168,-0.53449 0.0598,-1.09214 0.25329,-1.6679 0.20126,-0.59898 0.52385,-1.2023 0.97698,-1.80674 0.32251,-0.43443 0.71483,-0.92432 1.14566,-1.43049 0.0568,-0.0667 0.11414,-0.13359 0.17197,-0.20053 0.41136,-0.47618 0.86886,-0.98209 1.36149,-1.49787 1.14169,-1.19534 2.46466,-2.43607 3.8439,-3.49216 0.69946,-0.53558 1.41326,-1.02361 2.1263,-1.4352 0.72031,-0.41578 1.44194,-0.75478 2.14956,-0.98596 0.71543,-0.23373 1.42143,-0.35884 2.09996,-0.33855 0.68901,0.0206 1.34557,0.1912 1.94648,0.54377 0.46582,0.27364 0.86197,0.55942 1.19521,0.85632 0.27466,0.2447 0.50671,0.49709 0.69957,0.75638 0.0428,0.0575 0.0836,0.11534 0.12244,0.17338 0.2172,0.32458 0.37279,0.65592 0.47628,0.99029 0.10521,0.3399 0.15597,0.68096 0.164,1.01903 0.0163,0.68671 -0.1435,1.36653 -0.38907,2.01561 -0.24956,0.65965 -0.59625,1.30961 -0.96763,1.93187 -0.37266,0.62443 -0.77822,1.23417 -1.15292,1.81613 -0.36964,0.5741 -0.71405,1.12845 -0.96632,1.64408 -0.12408,0.25362 -0.22603,0.49817 -0.29793,0.73147 -0.0708,0.22965 -0.1121,0.44734 -0.11722,0.65132 -0.004,0.17813 0.0187,0.34602 0.0742,0.50307 0.007,0.0192 0.0141,0.0382 0.0218,0.0571 0.0709,0.17228 0.18365,0.33319 0.34746,0.48155 0.70299,0.63696 1.65018,1.22303 2.70222,1.79445 1.02422,0.55631 2.15863,1.10236 3.28771,1.6895 1.02875,0.53497 2.11633,1.13825 2.99386,1.80561 0.41414,0.31495 0.79965,0.65743 1.11842,1.02998 0.16362,0.19121 0.3116,0.39259 0.43727,0.60461 0.10533,0.17771 0.19808,0.36791 0.27072,0.57044 0.18995,0.52869 0.31707,1.07502 0.35409,1.62696 0.034,0.50724 -0.008,1.01519 -0.14488,1.51259 -0.12858,0.46861 -0.339,0.92172 -0.63972,1.35054 -0.28804,0.41075 -0.65619,0.7953 -1.10782,1.14797 -0.87032,0.6796 -2.04274,1.23455 -3.52543,1.63256 -1.45947,0.39178 -3.20274,0.62691 -5.21693,0.68448 -1.72065,0.0543 -3.1449,-0.17523 -4.3041,-0.5945 -1.1831,-0.42792 -2.08707,-1.05226 -2.75025,-1.771 -0.68449,-0.74183 -1.11177,-1.58281 -1.33299,-2.41991 -0.23189,-0.87747 -0.23879,-1.75253 -0.0822,-2.5364 0.16766,-0.83935 0.5209,-1.5723 0.99281,-2.1395 0.52065,-0.62577 1.17428,-1.03946 1.89421,-1.22996 0.83308,-0.22045 1.72236,-0.13645 2.60913,0.18417 1.14741,0.41486 2.22332,1.19831 3.15989,2.08105 -0.94472,-0.87605 -2.027,-1.64524 -3.17406,-2.04093 -0.88632,-0.30576 -1.76295,-0.36987 -2.57125,-0.13822 -0.6974,0.19988 -1.3215,0.61553 -1.81145,1.2306 -0.44452,0.55805 -0.77112,1.27361 -0.91694,2.08737 -0.13624,0.76031 -0.11277,1.60252 0.1251,2.44012 0.22683,0.79872 0.6494,1.59372 1.31258,2.28963 0.64203,0.67372 1.51332,1.25808 2.65474,1.65492 1.11906,0.38907 2.50089,0.59879 4.18148,0.53114 1.99226,-0.0861 3.6975,-0.34639 5.10819,-0.75228 1.4347,-0.41279 2.52963,-0.96596 3.31707,-1.60785 0.40746,-0.33215 0.72925,-0.68524 0.97504,-1.05164 0.25621,-0.38193 0.43011,-0.77864 0.53364,-1.1836 0.10996,-0.43014 0.14099,-0.87134 0.106,-1.31731 -0.0382,-0.48621 -0.15461,-0.9757 -0.33047,-1.45988 -0.0586,-0.1609 -0.13403,-0.31563 -0.22196,-0.46433 -0.10494,-0.17747 -0.23052,-0.3513 -0.37347,-0.52171 -0.27949,-0.33316 -0.62527,-0.65306 -1.0116,-0.96026 -0.821,-0.65282 -1.85626,-1.27133 -2.86482,-1.83923 -1.09983,-0.61931 -2.2174,-1.20802 -3.23383,-1.80261 -1.04061,-0.60873 -1.99649,-1.23362 -2.7198,-1.89869 -0.19195,-0.17643 -0.33069,-0.37244 -0.42046,-0.58719 -0.01,-0.0233 -0.0189,-0.0469 -0.0275,-0.0706 -0.0704,-0.19442 -0.10046,-0.3982 -0.0994,-0.60719 0.001,-0.23835 0.0429,-0.48541 0.11259,-0.73699 0.0709,-0.25573 0.1718,-0.5198 0.29233,-0.78847 0.24419,-0.54431 0.57804,-1.127 0.92637,-1.71556 0.3573,-0.60372 0.73113,-1.21585 1.07409,-1.84474 0.34102,-0.62531 0.64523,-1.2563 0.85543,-1.88001 0.20707,-0.61437 0.32137,-1.21715 0.29174,-1.79709 -0.0145,-0.28401 -0.0636,-0.56448 -0.15466,-0.8407 -0.0895,-0.27143 -0.22087,-0.54303 -0.4048,-0.81334 -0.033,-0.0485 -0.0678,-0.097 -0.1043,-0.14559 -0.16461,-0.21861 -0.36574,-0.43685 -0.60949,-0.65338 -0.29596,-0.26291 -0.65491,-0.52342 -1.08757,-0.77875 -0.49233,-0.29106 -1.0353,-0.44022 -1.62454,-0.46491 -0.58454,-0.0245 -1.21567,0.0736 -1.88321,0.27988 -0.65978,0.20386 -1.34717,0.5109 -2.04823,0.89932 -0.69324,0.38409 -1.39446,0.84477 -2.08859,1.35668 -1.36979,1.0102 -2.69473,2.20724 -3.84703,3.37028 -0.49648,0.50111 -0.95817,0.99315 -1.37377,1.45659 -0.0584,0.0651 -0.11636,0.13018 -0.17378,0.19507 -0.43628,0.49301 -0.83305,0.96664 -1.16233,1.3851 -0.44335,0.56868 -0.75979,1.13208 -0.96232,1.6882 -0.19458,0.53426 -0.28084,1.05307 -0.28019,1.55369 6.5e-4,0.49468 0.0862,0.96554 0.22965,1.40798 0.14529,0.44803 0.34842,0.86201 0.5765,1.23571 0.48956,0.80211 1.09945,1.42651 1.50863,1.80537 0.59352,0.54953 0.8075,0.67687 0.80198,0.68544 z"
       inkscape:original-d="m 127.21195,130.19713 c 0,0 -5.7035,-3.67461 -2.0234,-8.49036 2.47419,-3.23769 10.12459,-11.24727 14.5234,-8.6575 7.16546,4.21862 -3.57377,10.83585 -0.71724,13.44358 2.85654,2.60772 9.52893,4.47571 10.61784,7.49071 1.54212,4.26986 -1.97382,7.37618 -9.99508,7.66383 -13.51058,0.4845 -8.87841,-16.72122 0.19314,-8.24034"
       inkscape:path-effect="#path-effect1208;#path-effect389"
       class="UnoptimicedTransforms" />
    <path
       transform="rotate(-180,126.15529,113.57853)"
       id="path1664"
       d="m 127.21195,130.19713 c -0.006,0.009 -0.2385,-0.0895 -0.86536,-0.61337 -0.43149,-0.36061 -1.07588,-0.96872 -1.60751,-1.77437 -0.24767,-0.37534 -0.4735,-0.79755 -0.64085,-1.26106 -0.16537,-0.45802 -0.27254,-0.95341 -0.2891,-1.48089 -0.0168,-0.53449 0.0598,-1.09214 0.25329,-1.6679 0.20126,-0.59898 0.52385,-1.2023 0.97698,-1.80674 0.32251,-0.43443 0.71483,-0.92432 1.14566,-1.43049 0.0568,-0.0667 0.11414,-0.13359 0.17197,-0.20053 0.41136,-0.47618 0.86886,-0.98209 1.36149,-1.49787 1.14169,-1.19534 2.46466,-2.43607 3.8439,-3.49216 0.69946,-0.53558 1.41326,-1.02361 2.1263,-1.4352 0.72031,-0.41578 1.44194,-0.75478 2.14956,-0.98596 0.71543,-0.23373 1.42143,-0.35884 2.09996,-0.33855 0.68901,0.0206 1.34557,0.1912 1.94648,0.54377 0.46582,0.27364 0.86197,0.55942 1.19521,0.85632 0.27466,0.2447 0.50671,0.49709 0.69957,0.75638 0.0428,0.0575 0.0836,0.11534 0.12244,0.17338 0.2172,0.32458 0.37279,0.65592 0.47628,0.99029 0.10521,0.3399 0.15597,0.68096 0.164,1.01903 0.0163,0.68671 -0.1435,1.36653 -0.38907,2.01561 -0.24956,0.65965 -0.59625,1.30961 -0.96763,1.93187 -0.37266,0.62443 -0.77822,1.23417 -1.15292,1.81613 -0.36964,0.5741 -0.71405,1.12845 -0.96632,1.64408 -0.12408,0.25362 -0.22603,0.49817 -0.29793,0.73147 -0.0708,0.22965 -0.1121,0.44734 -0.11722,0.65132 -0.004,0.17813 0.0187,0.34602 0.0742,0.50307 0.007,0.0192 0.0141,0.0382 0.0218,0.0571 0.0709,0.17228 0.18365,0.33319 0.34746,0.48155 0.70299,0.63696 1.65018,1.22303 2.70222,1.79445 1.02422,0.55631 2.15863,1.10236 3.28771,1.6895 1.02875,0.53497 2.11633,1.13825 2.99386,1.80561 0.41414,0.31495 0.79965,0.65743 1.11842,1.02998 0.16362,0.19121 0.3116,0.39259 0.43727,0.60461 0.10533,0.17771 0.19808,0.36791 0.27072,0.57044 0.18995,0.52869 0.31707,1.07502 0.35409,1.62696 0.034,0.50724 -0.008,1.01519 -0.14488,1.51259 -0.12858,0.46861 -0.339,0.92172 -0.63972,1.35054 -0.28804,0.41075 -0.65619,0.7953 -1.10782,1.14797 -0.87032,0.6796 -2.04274,1.23455 -3.52543,1.63256 -1.45947,0.39178 -3.20274,0.62691 -5.21693,0.68448 -1.72065,0.0543 -3.1449,-0.17523 -4.3041,-0.5945 -1.1831,-0.42792 -2.08707,-1.05226 -2.75025,-1.771 -0.68449,-0.74183 -1.11177,-1.58281 -1.33299,-2.41991 -0.23189,-0.87747 -0.23879,-1.75253 -0.0822,-2.5364 0.16766,-0.83935 0.5209,-1.5723 0.99281,-2.1395 0.52065,-0.62577 1.17428,-1.03946 1.89421,-1.22996 0.83308,-0.22045 1.72236,-0.13645 2.60913,0.18417 1.14741,0.41486 2.22332,1.19831 3.15989,2.08105 -0.94472,-0.87605 -2.027,-1.64524 -3.17406,-2.04093 -0.88632,-0.30576 -1.76295,-0.36987 -2.57125,-0.13822 -0.6974,0.19988 -1.3215,0.61553 -1.81145,1.2306 -0.44452,0.55805 -0.77112,1.27361 -0.91694,2.08737 -0.13624,0.76031 -0.11277,1.60252 0.1251,2.44012 0.22683,0.79872 0.6494,1.59372 1.31258,2.28963 0.64203,0.67372 1.51332,1.25808 2.65474,1.65492 1.11906,0.38907 2.50089,0.59879 4.18148,0.53114 1.99226,-0.0861 3.6975,-0.34639 5.10819,-0.75228 1.4347,-0.41279 2.52963,-0.96596 3.31707,-1.60785 0.40746,-0.33215 0.72925,-0.68524 0.97504,-1.05164 0.25621,-0.38193 0.43011,-0.77864 0.53364,-1.1836 0.10996,-0.43014 0.14099,-0.87134 0.106,-1.31731 -0.0382,-0.48621 -0.15461,-0.9757 -0.33047,-1.45988 -0.0586,-0.1609 -0.13403,-0.31563 -0.22196,-0.46433 -0.10494,-0.17747 -0.23052,-0.3513 -0.37347,-0.52171 -0.27949,-0.33316 -0.62527,-0.65306 -1.0116,-0.96026 -0.821,-0.65282 -1.85626,-1.27133 -2.86482,-1.83923 -1.09983,-0.61931 -2.2174,-1.20802 -3.23383,-1.80261 -1.04061,-0.60873 -1.99649,-1.23362 -2.7198,-1.89869 -0.19195,-0.17643 -0.33069,-0.37244 -0.42046,-0.58719 -0.01,-0.0233 -0.0189,-0.0469 -0.0275,-0.0706 -0.0704,-0.19442 -0.10046,-0.3982 -0.0994,-0.60719 0.001,-0.23835 0.0429,-0.48541 0.11259,-0.73699 0.0709,-0.25573 0.1718,-0.5198 0.29233,-0.78847 0.24419,-0.54431 0.57804,-1.127 0.92637,-1.71556 0.3573,-0.60372 0.73113,-1.21585 1.07409,-1.84474 0.34102,-0.62531 0.64523,-1.2563 0.85543,-1.88001 0.20707,-0.61437 0.32137,-1.21715 0.29174,-1.79709 -0.0145,-0.28401 -0.0636,-0.56448 -0.15466,-0.8407 -0.0895,-0.27143 -0.22087,-0.54303 -0.4048,-0.81334 -0.033,-0.0485 -0.0678,-0.097 -0.1043,-0.14559 -0.16461,-0.21861 -0.36574,-0.43685 -0.60949,-0.65338 -0.29596,-0.26291 -0.65491,-0.52342 -1.08757,-0.77875 -0.49233,-0.29106 -1.0353,-0.44022 -1.62454,-0.46491 -0.58454,-0.0245 -1.21567,0.0736 -1.88321,0.27988 -0.65978,0.20386 -1.34717,0.5109 -2.04823,0.89932 -0.69324,0.38409 -1.39446,0.84477 -2.08859,1.35668 -1.36979,1.0102 -2.69473,2.20724 -3.84703,3.37028 -0.49648,0.50111 -0.95817,0.99315 -1.37377,1.45659 -0.0584,0.0651 -0.11636,0.13018 -0.17378,0.19507 -0.43628,0.49301 -0.83305,0.96664 -1.16233,1.3851 -0.44335,0.56868 -0.75979,1.13208 -0.96232,1.6882 -0.19458,0.53426 -0.28084,1.05307 -0.28019,1.55369 6.5e-4,0.49468 0.0862,0.96554 0.22965,1.40798 0.14529,0.44803 0.34842,0.86201 0.5765,1.23571 0.48956,0.80211 1.09945,1.42651 1.50863,1.80537 0.59352,0.54953 0.8075,0.67687 0.80198,0.68544 z"
       style="fill:#000000;fill-rule:nonzero;stroke:none;stroke-width:0.25;stroke-linejoin:bevel"
       class="UnoptimicedTransforms" />
  </g>
</svg>
