<?xml version="1.0" encoding="UTF-8" standalone="no"?>
<!-- Created with Inkscape (http://www.inkscape.org/) -->

<svg
   width="234.39301"
   height="85.046478"
   viewBox="0 0 58.598251 21.26162"
   version="1.1"
   id="svg5"
   inkscape:version="1.2.1 (9c6d41e4, 2022-07-14)"
   sodipodi:docname="ornament-experiment-06.svg"
   xmlns:inkscape="http://www.inkscape.org/namespaces/inkscape"
   xmlns:sodipodi="http://sodipodi.sourceforge.net/DTD/sodipodi-0.dtd"
   xmlns="http://www.w3.org/2000/svg"
   xmlns:svg="http://www.w3.org/2000/svg">
  <sodipodi:namedview
     id="namedview7"
     pagecolor="#ffffff"
     bordercolor="#000000"
     borderopacity="0.25"
     inkscape:showpageshadow="2"
     inkscape:pageopacity="0.0"
     inkscape:pagecheckerboard="0"
     inkscape:deskcolor="#d1d1d1"
     inkscape:document-units="mm"
     showgrid="true"
     inkscape:zoom="0.33270146"
     inkscape:cx="309.58686"
     inkscape:cy="697.32187"
     inkscape:window-width="1440"
     inkscape:window-height="800"
     inkscape:window-x="0"
     inkscape:window-y="23"
     inkscape:window-maximized="0"
     inkscape:current-layer="layer1">
    <inkscape:grid
       type="xygrid"
       id="grid132"
       spacingx="6.25"
       spacingy="6.25"
       empspacing="4"
       originx="0"
       originy="0" />
  </sodipodi:namedview>
  <defs
     id="defs2">
    <inkscape:path-effect
       effect="taper_stroke"
       id="path-effect619"
       is_visible="true"
       lpeversion="1"
       stroke_width="1"
       attach_start="4.99999"
       end_offset="4.99999"
       start_smoothing="0.5"
       end_smoothing="0.5"
       jointype="extrapolated"
       start_shape="center"
       end_shape="center"
       miter_limit="100" />
  </defs>
  <g
     inkscape:label="Layer 1"
     inkscape:groupmode="layer"
     id="layer1"
     transform="translate(-97.204132,-125.57615)">
    <path
       id="path456"
       style="fill:#000000;fill-rule:nonzero;stroke:none;stroke-width:0.25"
       d="m 150.74004,144.91389 c 2.42812,-1.62926 4.15421,-4.18884 4.7973,-6.9904 0.66422,-2.89339 0.0616,-5.96323 -1.60079,-8.25885 -1.38697,-1.9038 -3.46117,-3.15187 -5.61062,-3.57521 -2.34604,-0.46255 -4.7181,0.15853 -6.3821,1.51102 -1.35058,1.10407 -2.14953,2.66321 -2.37454,4.18598 -0.26291,1.7725 0.3562,3.44409 1.4018,4.49124 0.80322,0.7996 1.84979,1.17408 2.77891,1.22233 1.2123,0.0648 2.17082,-0.57154 2.59573,-1.30427 0.31168,-0.54614 0.215,-1.18456 0.0849,-1.57943 0,0 0,0 0,0 -0.0895,-0.27872 -0.2324,-0.4804 -0.41856,-0.58567 -0.45362,-0.25115 -0.7588,0.0513 -0.7588,0.0513 0,0 0.32175,-0.28613 0.74289,-0.0241 0.17488,0.10644 0.29852,0.30328 0.37769,0.57589 0,0 0,0 0,0 0.11039,0.39126 0.1786,1.01355 -0.12971,1.50112 -0.42505,0.68437 -1.35477,1.23844 -2.47878,1.14227 -0.87761,-0.0762 -1.84918,-0.46469 -2.56326,-1.22421 -0.94539,-0.99869 -1.45946,-2.57505 -1.1743,-4.1923 0.24844,-1.40578 1.03276,-2.82753 2.2849,-3.79714 1.54432,-1.20372 3.74422,-1.7094 5.8629,-1.24772 1.9591,0.42712 3.84067,1.61319 5.06104,3.35019 1.48134,2.09421 1.98617,4.92073 1.36303,7.53858 -0.60781,2.55359 -2.20912,4.90231 -4.41624,6.37866 -4e-5,3e-5 -9e-5,6e-5 -1.3e-4,9e-5 -5.63798,3.77731 -13.42173,1.64865 -23.32695,-8.2303 -10.0582,-10.03155 -18.39214,-12.50527 -24.58972,-8.35304 -5e-5,3e-5 -1e-4,7e-5 -1.5e-4,1e-4 -2.428122,1.62926 -4.154208,4.18884 -4.797292,6.9904 -0.664223,2.89339 -0.06163,5.96323 1.600792,8.25885 1.38697,1.9038 3.46117,3.15187 5.61062,3.57521 2.34604,0.46255 4.7181,-0.15853 6.3821,-1.51102 1.35058,-1.10407 2.14953,-2.66321 2.37455,-4.18598 0.2629,-1.7725 -0.35621,-3.44409 -1.40181,-4.49124 -0.80322,-0.7996 -1.84979,-1.17408 -2.77891,-1.22233 -1.2123,-0.0648 -2.17082,0.57154 -2.59573,1.30427 -0.31168,0.54614 -0.215,1.18456 -0.0849,1.57943 0,0 0,0 0,0 0.0895,0.27872 0.2324,0.4804 0.41856,0.58567 0.45362,0.25115 0.7588,-0.0513 0.7588,-0.0513 0,0 -0.32175,0.28613 -0.74289,0.0241 -0.17488,-0.10644 -0.29852,-0.30328 -0.37769,-0.57589 0,0 0,0 0,0 -0.11039,-0.39126 -0.1786,-1.01355 0.12971,-1.50112 0.42505,-0.68437 1.35477,-1.23844 2.47878,-1.14227 0.87761,0.0762 1.84918,0.46469 2.56326,1.22421 0.94539,0.99869 1.45946,2.57505 1.17431,4.1923 -0.24845,1.40578 -1.03277,2.82753 -2.28491,3.79714 -1.54432,1.20372 -3.74422,1.7094 -5.8629,1.24772 -1.9591,-0.42712 -3.84067,-1.61319 -5.061046,-3.35019 -1.48134,-2.09421 -1.986171,-4.92073 -1.363031,-7.53858 0.607816,-2.55358 2.209117,-4.90231 4.416237,-6.37866 4e-5,-3e-5 9e-5,-6e-5 1.3e-4,-9e-5 5.63798,-3.77731 13.42174,-1.64865 23.32696,8.2303 10.0582,10.03155 18.39213,12.50527 24.58971,8.35304 5e-5,-3e-5 1e-4,-7e-5 1.5e-4,-1e-4 z"
       sodipodi:nodetypes="cssssscsssssc"
       inkscape:path-effect="#path-effect619"
       inkscape:original-d="m 145.25326,134.08193 c 1.25346,-0.62673 1.46323,1.38043 1.04167,2.08333 -1.14242,1.90482 -3.88749,1.35723 -5.20834,0 -2.36268,-2.42775 -1.41935,-6.37253 1.04167,-8.33333 3.61165,-2.87756 8.89558,-1.49521 11.45833,2.08333 3.41575,4.76964 1.57763,11.43269 -3.125,14.58334 -5.91778,3.96477 -13.97662,1.66358 -23.95833,-8.29167 -9.98171,-9.95525 -18.04056,-12.25644 -23.95834,-8.29167 -4.702624,3.15065 -6.540741,9.8137 -3.124993,14.58334 2.562753,3.57854 7.846683,4.96089 11.458333,2.08333 2.46102,-1.9608 3.40436,-5.90558 1.04167,-8.33333 -1.32085,-1.35723 -4.06592,-1.90482 -5.20834,0 -0.42156,0.7029 -0.21179,2.71006 1.04167,2.08333" />
  </g>
</svg>
