<?xml version="1.0" encoding="UTF-8" standalone="no"?>
<!-- Created with Inkscape (http://www.inkscape.org/) -->

<svg
   width="819.10651"
   height="93.147797"
   viewBox="0 0 204.77663 23.286949"
   version="1.1"
   id="svg5"
   inkscape:version="1.2.1 (9c6d41e4, 2022-07-14)"
   sodipodi:docname="ornament-experiment-06.svg"
   xmlns:inkscape="http://www.inkscape.org/namespaces/inkscape"
   xmlns:sodipodi="http://sodipodi.sourceforge.net/DTD/sodipodi-0.dtd"
   xmlns="http://www.w3.org/2000/svg"
   xmlns:svg="http://www.w3.org/2000/svg">
  <sodipodi:namedview
     id="namedview7"
     pagecolor="#ffffff"
     bordercolor="#000000"
     borderopacity="0.25"
     inkscape:showpageshadow="2"
     inkscape:pageopacity="0.0"
     inkscape:pagecheckerboard="0"
     inkscape:deskcolor="#d1d1d1"
     inkscape:document-units="mm"
     showgrid="true"
     inkscape:zoom="0.33270146"
     inkscape:cx="309.58686"
     inkscape:cy="697.32187"
     inkscape:window-width="1440"
     inkscape:window-height="800"
     inkscape:window-x="0"
     inkscape:window-y="23"
     inkscape:window-maximized="0"
     inkscape:current-layer="layer1">
    <inkscape:grid
       type="xygrid"
       id="grid132"
       spacingx="6.25"
       spacingy="6.25"
       empspacing="4"
       originx="0"
       originy="0" />
  </sodipodi:namedview>
  <defs
     id="defs2">
    <inkscape:path-effect
       effect="taper_stroke"
       id="path-effect348"
       is_visible="true"
       lpeversion="1"
       stroke_width="1"
       attach_start="3.5"
       end_offset="3.5"
       start_smoothing="0.5"
       end_smoothing="0.5"
       jointype="extrapolated"
       start_shape="center"
       end_shape="center"
       miter_limit="100" />
    <inkscape:path-effect
       effect="mirror_symmetry"
       start_point="100,0"
       end_point="100,350"
       center_point="100,175"
       id="path-effect250"
       is_visible="true"
       lpeversion="1.2"
       lpesatellites=""
       mode="vertical"
       discard_orig_path="false"
       fuse_paths="false"
       oposite_fuse="false"
       split_items="false"
       split_open="false"
       link_styles="false" />
  </defs>
  <g
     inkscape:label="Layer 1"
     inkscape:groupmode="layer"
     id="layer1"
     transform="translate(-22.611416,-52.203575)">
    <path
       style="fill:#000000;fill-rule:nonzero;stroke:none;stroke-width:0.5;stroke-linejoin:bevel"
       d="m 171.02814,69.052577 c -5.66064,-3.069413 -11.26849,-6.319929 -17.62561,-7.16145 -2.58527,-0.207134 -5.12765,0.380551 -7.45042,1.204202 l 0,0 c -2.50865,0.88655 -4.94783,2.082223 -7.23663,3.130173 l 0,0 c -2.36493,1.079654 -4.60706,2.059344 -6.97877,2.581077 l 0,0 c -2.28939,0.501321 -4.61176,0.468433 -6.62373,-0.335268 l 0,0 c -3.62749,-1.439317 -6.94714,-3.097564 -10.18537,-4.04995 l 0,0 c -1.44054,-0.424931 -2.8395,-0.683651 -4.22226,-0.622331 l 0,0 c -1.42776,0.06504 -2.74019,0.523677 -3.79861,1.211023 l 0,0 c -2.69129,1.752908 -4.35195,4.498229 -5.23636,6.148296 l 0,0 c -0.5947,1.108728 -1.00196,2.062068 -1.25664,2.703995 l 0,0 c -0.14225,0.358532 -0.24171,0.632836 -0.30938,0.826535 l 0,10e-7 c -0.0351,0.100609 -0.0599,0.174318 -0.0774,0.227689 l 0,10e-7 c -0.009,0.0269 -0.0151,0.04635 -0.0197,0.06068 -0.005,0.01508 -0.007,0.02264 -0.007,0.02264 0,0 0.003,-0.0075 0.008,-0.02245 0.005,-0.01421 0.0117,-0.03348 0.0212,-0.06015 l 0,-1e-6 c 0.0189,-0.05293 0.0454,-0.12594 0.083,-0.225659 l 0,0 c 0.0723,-0.191998 0.17824,-0.463461 0.32878,-0.818209 l 0,0 c 0.26955,-0.635195 0.69796,-1.576809 1.31501,-2.668062 l 0,0 c 0.91917,-1.624356 2.63057,-4.315863 5.2948,-5.969253 l 0,0 c 1.03227,-0.642409 2.30257,-1.056749 3.6673,-1.092907 l 0,0 c 1.33029,-0.037 2.6783,0.242345 4.08739,0.681716 l 0,0 c 3.17581,0.993001 6.43799,2.69537 10.08181,4.203779 l 0,0 c 2.14249,0.880477 4.59634,0.964285 6.99612,0.46217 l 0,0 c 2.46516,-0.513307 4.77539,-1.482474 7.15804,-2.542755 l 0,0 c 2.31363,-1.026564 4.74658,-2.18972 7.19769,-3.028321 l 0,0 c 2.26369,-0.771649 4.68175,-1.323333 7.06202,-1.102362 6.10389,0.820462 11.56571,4.051973 17.25179,7.114896 5.30038,2.886363 10.90039,5.820009 16.97597,5.539569 2.11701,-0.158844 4.23301,-0.447049 6.2392,-1.173386 2.75842,-1.00349 5.13077,-2.892998 6.58803,-5.334625 1.37709,-2.303763 2.18979,-4.921211 2.00654,-7.516826 -0.16459,-2.229311 -1.10764,-4.316371 -2.5503,-5.870826 l 0,-10e-7 c -3.45547,-3.685887 -8.9375,-4.002578 -12.82679,-2.60909 -2.07391,0.739906 -3.74257,2.151722 -4.76915,3.811446 -1.00964,1.626955 -1.39596,3.464427 -1.06037,5.091507 0.39943,1.893476 1.88269,3.183852 3.29173,3.710838 4.90609,1.825438 8.15289,-0.328358 8.15289,-0.328358 0,0 -3.31165,2.06996 -8.08949,0.163814 -1.35113,-0.536511 -2.75299,-1.811303 -3.08579,-3.599857 -0.29662,-1.551986 0.11541,-3.296239 1.10325,-4.841337 1.00828,-1.571687 2.6308,-2.891208 4.61191,-3.562829 3.76661,-1.271524 9.0415,-0.88374 12.17822,2.616652 -1e-5,3e-6 0,4e-6 0,4e-6 1.32072,1.457953 2.17173,3.41392 2.29768,5.468643 0.15573,2.402793 -0.6506,4.851922 -1.97209,7.038469 -1.36381,2.2525 -3.6035,3.993243 -6.18245,4.912422 -1.88257,0.674501 -3.91236,0.93006 -5.99032,1.079568 -5.7284,0.285702 -11.13007,-2.625822 -16.44321,-5.475537 z m -142.055738,0 c 5.660641,-3.069413 11.268488,-6.319929 17.625606,-7.16145 2.585274,-0.207134 5.127655,0.380551 7.450428,1.204202 l 0,0 c 2.508645,0.88655 4.947826,2.082223 7.23663,3.130173 l 0,0 c 2.364921,1.079654 4.607051,2.059344 6.978762,2.581077 l 0,0 c 2.289397,0.501321 4.611764,0.468433 6.623735,-0.335268 l 0,0 c 3.627491,-1.439317 6.947135,-3.097564 10.185369,-4.04995 l 0,0 c 1.440543,-0.424931 2.839499,-0.683651 4.222264,-0.622331 l 0,0 c 1.427753,0.06504 2.740184,0.523677 3.798603,1.211023 l 0,0 c 2.69129,1.752908 4.351954,4.498229 5.236359,6.148296 l 0,0 c 0.594704,1.108728 1.001964,2.062068 1.256644,2.703995 l 0,0 c 0.142246,0.358532 0.241712,0.632836 0.309376,0.826535 l 0,10e-7 c 0.03514,0.100609 0.05987,0.174318 0.07744,0.227689 l 1e-6,10e-7 c 0.0089,0.0269 0.01514,0.04635 0.01972,0.06068 0.0048,0.01508 0.0072,0.02264 0.0072,0.02264 0,0 -0.0025,-0.0075 -0.0077,-0.02245 -0.0049,-0.01421 -0.01169,-0.03348 -0.02121,-0.06015 l 0,-1e-6 c -0.01888,-0.05293 -0.04538,-0.12594 -0.08295,-0.225659 l -10e-7,0 c -0.07235,-0.191998 -0.178248,-0.463461 -0.328785,-0.818209 l 0,0 c -0.269547,-0.635195 -0.697957,-1.576809 -1.31501,-2.668062 l 0,0 c -0.919165,-1.624356 -2.63057,-4.315863 -5.294796,-5.969253 l 0,0 C 91.91775,64.593692 90.647449,64.179352 89.282723,64.143194 l 0,0 c -1.330295,-0.037 -2.678303,0.242345 -4.087394,0.681716 l 0,0 c -3.175806,0.993001 -6.437992,2.69537 -10.08181,4.203779 l 0,0 c -2.142486,0.880477 -4.596334,0.964285 -6.996119,0.46217 l 0,0 c -2.465154,-0.513307 -4.77539,-1.482474 -7.158041,-2.542755 l 0,0 c -2.313624,-1.026564 -4.746577,-2.18972 -7.197691,-3.028321 l 0,0 C 51.497982,63.148134 49.079924,62.59645 46.699655,62.817421 40.595763,63.637883 35.133937,66.869394 29.447858,69.932317 24.147481,72.81868 18.547473,75.752326 12.471887,75.471886 10.354886,75.313042 8.2388789,75.024837 6.2326928,74.2985 3.4742745,73.29501 1.1019169,71.405502 -0.3553373,68.963875 c -1.377091,-2.303763 -2.1897864,-4.921211 -2.0065389,-7.516826 0.1645912,-2.229311 1.1076331,-4.316371 2.55029635,-5.870826 l 5.16e-6,-10e-7 C 3.643888,51.890335 9.1259221,51.573644 13.015211,52.967132 c 2.073914,0.739906 3.742568,2.151722 4.769147,3.811446 1.00964,1.626955 1.395964,3.464427 1.06037,5.091507 -0.399425,1.893476 -1.882686,3.183852 -3.291732,3.710838 -4.906086,1.825438 -8.1528846,-0.328358 -8.1528846,-0.328358 0,0 3.3116536,2.06996 8.0894866,0.163814 1.351136,-0.536511 2.752997,-1.811303 3.085792,-3.599857 0.296619,-1.551986 -0.115405,-3.296239 -1.103251,-4.841337 -1.008275,-1.571687 -2.630796,-2.891208 -4.611908,-3.562829 -3.7666126,-1.271524 -9.0414955,-0.88374 -12.17821485,2.616652 1.35e-6,3e-6 -3.47e-6,4e-6 -3.47e-6,4e-6 -1.32072127,1.457953 -2.17173518,3.41392 -2.29767688,5.468643 -0.155733,2.402793 0.65059539,4.851922 1.97208388,7.038469 1.36381392,2.2525 3.60350032,3.993243 6.18245032,4.912422 1.882569,0.674501 3.912365,0.93006 5.990326,1.079568 5.728393,0.285702 11.130064,-2.625822 16.443206,-5.475537 z"
       id="path246"
       inkscape:path-effect="#path-effect348;#path-effect250"
       inkscape:original-d="m 100,75 c 0,0 2.22058,-6.85063 6.97863,-9.876923 4.75805,-3.026294 10.26891,0.484142 18.02137,3.626923 8.85883,3.591293 18.69947,-7.227906 28.35171,-6.395726 C 165.59845,63.987679 176.22541,75.540755 187.5,75 c 2.97357,-0.218573 9.16579,-0.702032 12.5,-6.25 6.21521,-10.341825 -3.06195,-18.997776 -12.93718,-15.560256 -8.36569,2.912056 -8.87308,16.143162 5.53761,12.062821"
       class="UnoptimicedTransforms"
       sodipodi:nodetypes="czsccssc"
       transform="matrix(-1,0,0,1,225,0)" />
  </g>
</svg>
