<?xml version="1.0" encoding="UTF-8" standalone="no"?>
<!-- Created with Inkscape (http://www.inkscape.org/) -->

<svg
   width="433.47046"
   height="90.656616"
   viewBox="0 0 108.36761 22.664154"
   version="1.1"
   id="svg5"
   inkscape:version="1.2.1 (9c6d41e4, 2022-07-14)"
   sodipodi:docname="ornament-experiment-06.svg"
   xmlns:inkscape="http://www.inkscape.org/namespaces/inkscape"
   xmlns:sodipodi="http://sodipodi.sourceforge.net/DTD/sodipodi-0.dtd"
   xmlns="http://www.w3.org/2000/svg"
   xmlns:svg="http://www.w3.org/2000/svg">
  <sodipodi:namedview
     id="namedview7"
     pagecolor="#ffffff"
     bordercolor="#000000"
     borderopacity="0.25"
     inkscape:showpageshadow="2"
     inkscape:pageopacity="0.0"
     inkscape:pagecheckerboard="0"
     inkscape:deskcolor="#d1d1d1"
     inkscape:document-units="mm"
     showgrid="true"
     inkscape:zoom="0.33270146"
     inkscape:cx="309.58686"
     inkscape:cy="697.32187"
     inkscape:window-width="1440"
     inkscape:window-height="800"
     inkscape:window-x="0"
     inkscape:window-y="23"
     inkscape:window-maximized="0"
     inkscape:current-layer="layer1">
    <inkscape:grid
       type="xygrid"
       id="grid132"
       spacingx="6.25"
       spacingy="6.25"
       empspacing="4"
       originx="0"
       originy="0" />
  </sodipodi:namedview>
  <defs
     id="defs2">
    <inkscape:path-effect
       effect="taper_stroke"
       id="path-effect619-9-8"
       is_visible="true"
       lpeversion="1"
       stroke_width="1"
       attach_start="4.8370531"
       end_offset="4.99999"
       start_smoothing="0.5"
       end_smoothing="0.5"
       jointype="extrapolated"
       start_shape="center"
       end_shape="center"
       miter_limit="100" />
  </defs>
  <g
     inkscape:label="Layer 1"
     inkscape:groupmode="layer"
     id="layer1"
     transform="translate(-58.474323,-190.26736)">
    <path
       id="path456-9-3"
       style="fill:#000000;fill-rule:nonzero;stroke:none;stroke-width:0.25"
       d="m 158.73165,192.45238 c 2.96292,0.93261 5.55329,3.11223 6.61337,5.93491 0.8963,2.38922 0.78379,5.16812 -0.60572,7.11229 -1.22172,1.73917 -3.10484,2.92518 -5.06389,3.35223 -2.12128,0.46217 -4.32219,-0.045 -5.86663,-1.24907 -1.25336,-0.97084 -2.03757,-2.39383 -2.2858,-3.79999 -0.28515,-1.619 0.23016,-3.19602 1.17601,-4.19478 0.71493,-0.76001 1.68722,-1.14834 2.56505,-1.22425 1.12503,-0.0959 2.0549,0.45906 2.47982,1.14366 0.30838,0.48814 0.23987,1.11062 0.12932,1.50182 0,0 0,0 0,0 -0.0793,0.27268 -0.20309,0.46956 -0.37806,0.57598 -0.4215,0.26191 -0.74303,-0.0244 -0.74303,-0.0244 0,0 0.30527,0.30232 0.75866,0.0511 0.18603,-0.10527 0.32877,-0.30689 0.41818,-0.58557 0,0 0,-1e-5 0,-1e-5 0.1299,-0.39474 0.2264,-1.03305 -0.0853,-1.57873 -0.42478,-0.73208 -1.38291,-1.3679 -2.5947,-1.30288 -0.92843,0.0485 -1.97446,0.4229 -2.77711,1.22229 -1.04438,1.04631 -1.66318,2.71693 -1.40009,4.48877 0.22504,1.52125 1.02344,3.07961 2.37364,4.18312 1.66207,1.35072 4.03257,1.97221 6.37837,1.50968 2.14683,-0.42287 4.22061,-1.66941 5.60777,-3.57317 1.59548,-2.22397 1.7986,-5.29061 0.80517,-7.94231 -1.17747,-3.14607 -3.9662,-5.54652 -7.20641,-6.555 -1.47414,-0.46129 -3.15553,-0.7143 -5.04831,-0.69873 l 0.0214,2.8e-4 c -53.18123,-1.83448 -69.154697,31.85864 -89.955913,17.61659 l 0.0187,0.0134 c -4.4e-5,-3e-5 -8.7e-5,-6e-5 -1.3e-4,-9e-5 -2.138019,-1.61536 -3.735712,-3.94241 -4.371367,-6.49718 -0.643351,-2.57545 -0.166308,-5.37064 1.295672,-7.43605 1.220241,-1.73677 3.101647,-2.92285 5.060757,-3.34998 2.118419,-0.46162 4.318214,0.0439 5.862522,1.24758 1.252013,0.96949 2.03634,2.39111 2.284809,3.79685 0.285158,1.61707 -0.228788,3.19336 -1.174133,4.19205 -0.713987,0.75946 -1.685484,1.14802 -2.563068,1.2242 -1.123906,0.0962 -2.053615,-0.45778 -2.478672,-1.14212 -0.308305,-0.48751 -0.240132,-1.10979 -0.129753,-1.50105 0,0 10e-7,-1e-5 10e-7,-1e-5 0.07916,-0.27259 0.202781,-0.46943 0.377653,-0.57588 0.421107,-0.26198 0.742874,0.0241 0.742874,0.0241 0,0 -0.305175,-0.30246 -0.758821,-0.0513 -0.186165,0.10527 -0.32909,0.30696 -0.418594,0.58568 0,0 0,0 0,0 -0.130131,0.39489 -0.226837,1.03332 0.08485,1.5795 0.424925,0.7328 1.383487,1.36915 2.595838,1.30442 0.929186,-0.0482 1.975817,-0.42272 2.779102,-1.22234 1.045725,-1.04723 1.664868,-2.71893 1.40198,-4.4915 -0.22501,-1.52292 -1.02402,-3.08214 -2.374644,-4.18626 -1.664198,-1.35268 -4.036416,-1.97371 -6.382485,-1.51116 -2.149728,0.42339 -4.223967,1.67161 -5.610916,3.57542 -1.644171,2.27191 -2.217912,5.31429 -1.529971,8.16716 0.675904,2.7931 2.383108,5.31664 4.704005,7.06609 4.7e-5,4e-5 9.4e-5,7e-5 0.0093,0.007 a 27.217919,27.217919 0 0 0 0.0096,0.007 c 21.426974,14.6705 37.644657,-19.26507 90.486377,-17.44231 a 121.63645,121.63645 0 0 1 0.0107,3.7e-4 19.135257,19.135257 0 0 1 0.0106,-9e-5 c 1.79808,-0.0148 3.37553,0.22571 4.74144,0.65313 z"
       sodipodi:nodetypes="cssssccssssc"
       inkscape:path-effect="#path-effect619-9-8"
       inkscape:original-d="m 156.75209,201.58078 c 1.25346,0.62673 1.46323,-1.38043 1.04167,-2.08333 -1.14242,-1.90482 -3.88749,-1.35723 -5.20834,0 -2.36268,2.42775 -1.41935,6.37253 1.04167,8.33333 3.61165,2.87756 8.89558,1.49521 11.45833,-2.08333 3.41575,-4.76964 0.22605,-14.54132 -11.09932,-14.44818 -53.01121,-1.82861 -69.106565,31.98606 -90.221145,17.52945 -4.5184,-3.4096 -6.54074,-9.8137 -3.125,-14.58334 2.56276,-3.57854 7.84669,-4.96089 11.45834,-2.08333 2.46102,1.9608 3.40436,5.90558 1.04167,8.33333 -1.32086,1.35723 -4.06592,1.90482 -5.20834,0 -0.42157,-0.7029 -0.21179,-2.71006 1.04167,-2.08333" />
  </g>
</svg>
